# xmcd
#
# Track frame offsets:
#	150
#	19304
#	42022
#	58527
#	73726
#	85788
#	102518
#	119296
#	136691
#	160999
#
# Disc length: 2298 seconds
#
# Revision: 1
# Processed by: cddbd v1.5.2PL0 Copyright (c) Steve Scherf et al.
# Submitted via: audiograbber 1.83.01
#
DISCID=8008f80a
DTITLE=Hussy Hicks - raw
DYEAR=2016
DGENRE=Blues
TTITLE0=Trouble
TTITLE1=Catch The Glitter
TTITLE2=Dear Jean
TTITLE3=In The Morning
TTITLE4=Thought Mid Thought
TTITLE5=Feelings
TTITLE6=Happy
TTITLE7=Pirate Flag
TTITLE8=Three Rainbows
TTITLE9=Everything I Wanted
EXTD=
EXTT0=
EXTT1=
EXTT2=
EXTT3=
EXTT4=
EXTT5=
EXTT6=
EXTT7=
EXTT8=
EXTT9=
PLAYORDER=
